<?xml version="1.0" standalone="no"?>
<!DOCTYPE svg PUBLIC "-//W3C//DTD SVG 20010904//EN"
 "http://www.w3.org/TR/2001/REC-SVG-20010904/DTD/svg10.dtd">
<svg version="1.0" xmlns="http://www.w3.org/2000/svg"
 width="1000.000000pt" height="1000.000000pt" viewBox="0 0 1000.000000 1000.000000"
 preserveAspectRatio="xMidYMid meet">

<g transform="translate(0.000000,1000.000000) scale(0.100000,-0.100000)"
fill="#000000" stroke="none">
<path d="M0 5000 l0 -5000 5000 0 5000 0 0 5000 0 5000 -5000 0 -5000 0 0
-5000z m6521 4383 c6 -16 12 -37 14 -48 1 -11 8 -33 14 -49 6 -16 10 -31 7
-33 -2 -3 2 -19 10 -38 7 -18 16 -48 19 -66 3 -19 9 -45 14 -59 12 -36 35
-113 37 -125 0 -5 4 -22 8 -36 4 -14 8 -32 10 -40 1 -8 9 -34 16 -59 7 -25 14
-49 16 -55 1 -5 12 -46 24 -90 12 -44 24 -89 26 -100 3 -15 -35 -58 -149 -173
l-152 -152 763 -763 762 -762 -282 -283 -283 -282 -762 762 -763 763 -283
-283 -282 -282 -270 270 -270 270 870 870 c478 479 871 870 873 870 1 0 7 -12
13 -27z m-1411 -2228 l304 -304 -30 -11 c-82 -32 -247 -76 -315 -85 -15 -2
-36 -8 -46 -14 -11 -5 -30 -11 -44 -13 -13 -2 -28 -6 -34 -9 -5 -4 -23 -10
-40 -14 -16 -4 -37 -9 -45 -11 -8 -2 -53 -13 -100 -24 -47 -12 -103 -26 -125
-32 -22 -7 -43 -11 -47 -10 -10 2 -69 -59 -64 -66 4 -7 -18 -105 -27 -120 -3
-4 -8 -23 -11 -42 -3 -19 -8 -45 -11 -57 -3 -13 -7 -33 -10 -45 -2 -13 -13
-48 -24 -78 -22 -61 -35 -111 -33 -122 1 -4 -3 -19 -8 -33 -10 -26 -15 -46
-30 -120 -14 -66 -18 -85 -27 -98 -4 -6 -13 -28 -20 -47 l-12 -35 316 -317
c231 -232 320 -315 329 -307 12 10 60 26 104 35 14 3 43 10 65 15 22 5 51 12
65 15 14 3 39 9 55 14 17 5 55 17 85 26 30 10 65 18 76 20 12 1 30 7 41 12 11
6 42 14 69 18 27 3 52 8 56 11 5 2 18 6 30 9 38 8 41 9 95 28 28 9 61 18 72
19 12 1 21 8 22 17 1 24 6 43 23 82 9 20 18 51 20 70 3 18 10 49 16 68 6 19
14 48 17 64 2 16 9 40 14 53 5 13 9 34 9 46 0 12 7 35 15 51 16 29 32 86 40
138 2 15 9 36 14 46 6 11 8 22 5 25 -3 3 -1 14 4 24 6 10 13 34 16 53 12 72
16 85 36 104 l20 21 290 -290 c199 -199 288 -295 284 -305 -3 -8 -7 -22 -9
-30 -9 -37 -69 -192 -100 -257 -19 -40 -36 -76 -36 -80 -1 -5 -10 -20 -20 -35
-10 -14 -19 -29 -19 -33 0 -3 -14 -27 -32 -53 -18 -26 -30 -47 -28 -47 3 -1
-10 -19 -27 -42 -18 -22 -33 -47 -33 -54 0 -16 -404 -419 -420 -419 -6 0 -30
-15 -53 -32 -44 -34 -62 -46 -137 -86 -25 -13 -51 -29 -57 -34 -7 -6 -13 -8
-13 -4 0 4 -11 -1 -25 -10 -14 -9 -25 -13 -25 -10 0 4 -11 -1 -24 -9 -13 -9
-34 -18 -47 -21 -29 -6 -33 -7 -89 -24 -25 -7 -52 -15 -60 -16 -137 -25 -155
-27 -270 -27 -127 1 -308 30 -385 63 -25 11 -45 17 -45 14 0 -3 -16 4 -35 16
-19 12 -35 19 -35 16 0 -4 -11 1 -25 10 -14 9 -25 13 -25 9 0 -3 -13 3 -29 14
-16 12 -33 21 -39 21 -5 0 -28 14 -50 30 -23 17 -42 27 -42 24 0 -3 -18 8 -39
25 -21 17 -42 31 -46 31 -36 0 -567 530 -535 534 3 1 -8 17 -23 37 -15 20 -27
40 -27 44 0 4 -11 22 -24 39 -20 27 -81 147 -85 168 -1 4 -13 32 -26 63 -14
30 -23 55 -20 55 2 0 -2 15 -10 34 -8 18 -17 48 -20 67 -3 18 -8 35 -10 38 -3
6 -10 44 -20 123 -6 42 -7 296 -2 306 3 4 8 31 11 61 4 29 8 57 11 61 2 3 6
17 8 31 10 50 39 139 48 145 5 3 7 9 5 13 -9 13 97 211 145 272 16 20 29 42
29 49 0 16 404 420 420 420 7 0 41 23 76 51 35 28 64 48 64 44 0 -3 15 5 33
19 19 15 37 26 41 26 5 0 21 9 37 21 16 11 35 22 42 23 7 1 17 4 22 8 19 11
205 87 205 83 0 -2 24 7 53 20 28 13 54 24 57 24 3 1 142 -136 310 -304z
m-1685 -2685 l1590 -1590 1590 1590 1590 1590 533 -533 532 -532 -2125 -2125
-2125 -2125 -2125 2125 -2125 2125 532 532 c293 293 535 533 538 533 3 0 721
-716 1595 -1590z"/>
<path d="M6357 3642 l-2097 -2097 233 -233 232 -232 2100 2100 2100 2100 -230
230 c-126 126 -232 230 -235 230 -3 0 -949 -944 -2103 -2098z"/>
<path d="M1315 5500 l-230 -230 1583 -1583 1582 -1582 232 233 233 232 -1580
1580 c-869 869 -1582 1580 -1585 1580 -3 0 -109 -104 -235 -230z"/>
</g>
</svg>
